<?xml version="1.0" encoding="utf-8"?>
<!-- Generator: Adobe Illustrator 26.0.2, SVG Export Plug-In . SVG Version: 6.00 Build 0)  -->
<svg version="1.1"
	 id="svg8" xmlns:cc="http://creativecommons.org/ns#" xmlns:dc="http://purl.org/dc/elements/1.1/" xmlns:inkscape="http://www.inkscape.org/namespaces/inkscape" xmlns:rdf="http://www.w3.org/1999/02/22-rdf-syntax-ns#" xmlns:sodipodi="http://sodipodi.sourceforge.net/DTD/sodipodi-0.dtd" xmlns:svg="http://www.w3.org/2000/svg"
	 xmlns="http://www.w3.org/2000/svg" xmlns:xlink="http://www.w3.org/1999/xlink" x="0px" y="0px" viewBox="0 0 2267.7 1700.8"
	 style="enable-background:new 0 0 2267.7 1700.8;" xml:space="preserve">
<style type="text/css">
	.st0{fill:none;stroke:#342C5C;stroke-width:7.0866;stroke-miterlimit:11.3386;}
	.st1{fill:#342C5C;}
	.st2{fill:none;}
	.st3{fill:#FFFFFF;}
	.st4{fill:#231F20;stroke:#342C5C;stroke-width:2;stroke-miterlimit:11.3386;}
	.st5{font-family:'PalatinoLinotype-Roman';}
	.st6{font-size:58px;}
</style>
<sodipodi:namedview  bordercolor="#666666" borderopacity="1.0" id="base" inkscape:current-layer="text5209" inkscape:cx="600.88157" inkscape:cy="254.14516" inkscape:document-units="mm" inkscape:pageopacity="0.0" inkscape:pageshadow="2" inkscape:window-height="1377" inkscape:window-maximized="1" inkscape:window-width="2560" inkscape:window-x="-8" inkscape:window-y="-8" inkscape:zoom="1.979899" pagecolor="#ffffff" showgrid="false">
	</sodipodi:namedview>
<g id="layer1" transform="translate(0,303)" inkscape:groupmode="layer" inkscape:label="Layer 1">
	<g id="flowRoot4532" transform="matrix(0.26458333,0,0,0.26458333,0,-303)">
	</g>
	<path id="path4578" inkscape:connector-curvature="0" sodipodi:nodetypes="cccccc" class="st0" d="M450.9,1371.5h1792.9V-285H24
		v1656.1h58.3"/>
	<g id="text5209">
		<path id="path14" class="st1" d="M132.8,1340.5l-0.2,1.3l-0.3,0.3c-0.8,0-1.5,0-2.2,0.1c-0.7,0-1.2,0.2-1.7,0.6
			c-0.4,0.3-0.7,0.8-1.1,1.3c-0.3,0.5-0.6,1.5-0.6,2.8c0,0.6-0.1,1.2-0.1,1.7c0,0.6,0,1.3-0.1,2.1c0,0.8,0,1.8,0,3
			c0,1.2,0,2.6,0,4.2v13.8c0,2.4-0.4,4.6-1.1,6.6c-0.7,2-1.7,3.8-3.2,5.3c-1.4,1.5-3.3,2.7-5.5,3.5c-2.2,0.9-4.7,1.3-7.6,1.3
			c-3.4,0-6.2-0.4-8.6-1.3c-2.3-0.9-4.2-2-5.6-3.5c-1.4-1.5-2.5-3.3-3.2-5.3c-0.6-2.1-0.9-4.3-0.9-6.6v-13.8c0-1.7,0-3.1,0-4.2
			c0-1.2,0-2.1,0-3c0-0.8,0-1.5-0.1-2.1c0-0.6,0-1.2-0.1-1.7c-0.1-1.3-0.3-2.2-0.7-2.7c-0.3-0.6-0.7-1-1.1-1.4
			c-0.4-0.3-1-0.5-1.7-0.6c-0.7-0.1-1.4-0.1-2.2-0.1l-0.4-0.3l-0.2-1.3l0.1-0.3c0.3,0,0.9,0,1.7,0.1c0.8,0,1.6,0.1,2.4,0.1
			c0.8,0,1.6,0.1,2.4,0.1c0.8,0,1.3,0.1,1.7,0.1H94c0.3,0,0.9,0,1.7-0.1c0.8,0,1.6-0.1,2.4-0.1c0.8,0,1.6-0.1,2.4-0.1
			c0.8,0,1.3-0.1,1.7-0.1l0.1,0.3l-0.2,1.3l-0.3,0.3c-0.8,0-1.5,0-2.2,0.1c-0.7,0-1.2,0.2-1.7,0.6c-0.4,0.3-0.7,0.8-1.1,1.3
			c-0.3,0.5-0.6,1.5-0.6,2.8c0,0.7-0.1,1.3-0.1,1.9c0,0.6,0,1.2-0.1,2c0,0.8,0,1.7,0,2.8s0,2.5,0,4.2v11.9c0,5.2,1.2,8.9,3.5,11.2
			c2.4,2.3,5.6,3.4,9.7,3.4c4.1,0,7.4-1.1,9.7-3.4s3.5-6,3.5-11.2v-11.9c0-1.7,0-3.1,0-4.2c0-1.1,0-2-0.1-2.8c0-0.8,0-1.4-0.1-2
			c0-0.6,0-1.2-0.1-1.9c-0.1-1.3-0.3-2.3-0.7-2.8c-0.3-0.5-0.7-1-1.1-1.3c-0.4-0.3-0.9-0.5-1.7-0.6c-0.7-0.1-1.4-0.1-2.2-0.1
			l-0.4-0.3l-0.2-1.3l0.1-0.3c0.3,0,0.8,0,1.5,0.1c0.7,0,1.4,0.1,2.1,0.1c0.8,0,1.5,0.1,2.2,0.1c0.7,0,1.2,0.1,1.5,0.1h1.6
			c0.3,0,0.9,0,1.6-0.1c0.7,0,1.5-0.1,2.2-0.1c0.8,0,1.6-0.1,2.3-0.1c0.7,0,1.2-0.1,1.6-0.1L132.8,1340.5z"/>
		<path id="path16" class="st1" d="M156.4,1388.5l-11.7-32.7c-0.5-1.4-1-2.6-1.4-3.6c-0.3-1-0.6-1.8-0.9-2.4
			c-0.2-0.7-0.5-1.2-0.6-1.7s-0.4-0.8-0.5-1.2c-0.5-1.2-1.1-2.1-1.7-2.7c-0.5-0.7-1.1-1.2-1.7-1.4c-0.6-0.3-1.2-0.5-1.8-0.6
			c-0.6,0-1.2-0.1-1.8-0.1l-0.4-0.3l-0.1-1.3l0.1-0.3c0.3,0,0.8,0,1.4,0.1c0.7,0,1.4,0.1,2.1,0.1c0.7,0,1.4,0.1,2.1,0.1
			c0.7,0,1.2,0.1,1.5,0.1h2.4c0.3,0,0.9,0,1.7-0.1s1.6-0.1,2.4-0.1c0.9,0,1.7-0.1,2.4-0.1c0.8,0,1.3-0.1,1.7-0.1l0.1,0.3l-0.2,1.3
			l-0.4,0.3c-1.4,0-2.5,0.2-3.2,0.5c-0.8,0.3-1.2,1.1-1.2,2.5c0,1.1,0.4,2.7,1.1,4.7c0.8,2,1.7,4.5,2.8,7.5l4.9,13.2
			c0.9,2.5,1.7,4.8,2.4,6.8c0.7,2,1.4,3.7,1.9,5.1c0.5-1.4,1.2-3,1.9-5c0.8-1.9,1.6-4.2,2.6-6.9l4.9-13.2c0.7-1.9,1.3-3.5,1.8-5
			c0.6-1.4,1.1-2.7,1.4-3.9c-0.2-0.8-0.5-1.5-0.9-2.2c-0.3-0.7-0.7-1.4-1.2-1.9c-0.4-0.6-1-1.1-1.7-1.4c-0.7-0.4-1.6-0.6-2.7-0.7
			l-0.4-0.3l-0.1-1.3l0.1-0.3c0.3,0,0.8,0,1.4,0.1c0.7,0,1.3,0.1,2,0.1c0.7,0,1.4,0.1,2,0.1c0.7,0,1.2,0.1,1.5,0.1h2.4
			c0.3,0,0.9,0,1.6-0.1c0.7,0,1.5-0.1,2.3-0.1s1.6-0.1,2.3-0.1c0.7,0,1.2-0.1,1.6-0.1l0.1,0.3l-0.2,1.3l-0.4,0.3
			c-0.5,0-1.1,0.1-1.7,0.3c-0.6,0.1-1.1,0.4-1.7,0.7c-0.5,0.3-0.9,0.7-1.2,1.2c-0.3,0.5-0.4,1-0.4,1.7c0,0.5,0,0.8,0.1,1
			c0.3,1.2,0.7,2.6,1.4,4.3c0.7,1.7,1.4,3.7,2.2,6l4.9,13.2c0.9,2.4,1.7,4.7,2.4,6.8c0.7,2,1.3,3.7,1.9,5.1c0.5-1.4,1.2-3,1.9-5
			c0.8-1.9,1.6-4.2,2.6-6.9l4.9-13.2c1.1-3,2-5.5,2.7-7.5c0.8-2,1.2-3.6,1.2-4.7c0-1.4-0.4-2.2-1.2-2.5c-0.8-0.3-1.8-0.5-3.2-0.5
			l-0.3-0.3l-0.2-1.3l0.1-0.3c0.3,0,0.9,0,1.6,0.1c0.7,0,1.5,0.1,2.2,0.1c0.8,0,1.5,0.1,2.2,0.1c0.7,0,1.2,0.1,1.6,0.1h1.4
			c0.3,0,0.8,0,1.4-0.1c0.7,0,1.4-0.1,2.1-0.1c0.7,0,1.4-0.1,2.1-0.1c0.7,0,1.2-0.1,1.5-0.1l0.1,0.3l-0.2,1.3l-0.4,0.3
			c-0.6,0-1.2,0-1.8,0.1c-0.6,0-1.2,0.2-1.7,0.6c-0.6,0.3-1.2,0.8-1.7,1.4c-0.5,0.6-1.1,1.5-1.7,2.7c-0.1,0.4-0.4,0.9-0.6,1.4
			c-0.2,0.6-0.7,1.7-1.3,3.2c-0.6,1.6-1.5,3.9-2.7,6.8c-1.2,2.9-2.7,6.9-4.7,12c-0.7,1.7-1.4,3.4-2.1,5.3c-0.7,1.8-1.3,3.5-2,5.1
			c-0.6,1.6-1.2,3-1.7,4.2c-0.5,1.2-0.8,2.1-1,2.7l-3.7,0.8h-0.9l-12.5-34.7c-0.7,1.7-1.5,3.8-2.6,6.5c-1,2.6-2.3,6-3.9,10.2
			c-0.6,1.7-1.3,3.4-2,5.3c-0.7,1.8-1.4,3.5-2.1,5.1c-0.6,1.6-1.2,3-1.7,4.2c-0.5,1.2-0.8,2.1-1,2.7l-3.7,0.8H156.4z"/>
		<path id="path18" class="st2" d="M267.7,1349.2c-0.1-1.1-0.6-1.9-1.4-2.7c-0.8-0.7-1.7-1.3-2.9-1.7c-1.1-0.4-2.4-0.7-3.7-0.9
			c-1.3-0.2-2.7-0.3-4-0.3c-4.8,0-8.5,1.1-11.2,3.2c-2.3,1.8-4,4.2-5.1,7.3c-1.1,3-1.7,6.3-1.7,9.9c0,3.4,0.5,6.4,1.4,9
			c1,2.5,2.4,4.7,4.1,6.4c1.7,1.7,3.8,3,6.1,4c2.4,0.9,5,1.3,7.8,1.3c2,0,4.2-0.3,6.8-0.8c2.6-0.6,5-1.7,7.3-3.2l0.7,0.8l-1.6,3.2
			c-2.4,1.3-4.8,2.3-7.2,2.9c-2.4,0.6-4.8,0.9-7.3,0.9c-3.6,0-6.9-0.6-9.8-1.7c-2.9-1.2-5.4-2.8-7.6-4.9c-2.1-2.2-3.7-4.7-4.8-7.6
			c-1.2-3-1.7-6.3-1.7-9.9c0-3.4,0.5-6.5,1.5-9.5c1.1-3,2.6-5.6,4.6-7.8c2.1-2.2,4.6-4,7.6-5.3c3-1.3,6.5-1.9,10.5-1.9
			c0.9,0,1.9,0,3,0.1c1.2,0,2.4,0.2,3.7,0.4s2.6,0.5,4,0.8c1.3,0.3,2.6,0.7,3.9,1.2l0.2,0.6l-0.9,6.6h-2.1L267.7,1349.2z"/>
		<path id="path20" class="st2" d="M284.8,1351.1c0,1.3,0.2,2.5,0.7,3.4c0.5,0.9,1.2,1.6,2.2,2.3c1,0.7,2.3,1.3,3.7,1.9
			c1.5,0.5,3.3,1.1,5.4,1.7c1.8,0.6,3.5,1.2,5.3,1.9c1.7,0.7,3.3,1.7,4.6,2.8c1.4,1.1,2.5,2.5,3.3,4.1c0.8,1.6,1.2,3.5,1.2,5.8
			c0,2.4-0.5,4.5-1.4,6.3c-1,1.7-2.2,3-3.8,4.1c-1.6,1.1-3.4,1.8-5.5,2.3c-2.1,0.5-4.2,0.7-6.6,0.7c-3,0-5.7-0.3-8.1-1
			c-2.4-0.7-4.7-1.5-6.6-2.5l-0.3-0.9l1.2-7.7h1.8l0.4,0.4c0.2,2.9,1.4,5.1,3.5,6.5c2.1,1.3,5,2,8.6,2c3.7,0,6.6-0.8,8.4-2.5
			c1.9-1.7,2.9-4,2.9-6.7c0-1.7-0.4-3.1-1.1-4.2c-0.7-1.2-1.7-2.1-2.9-2.9c-1.2-0.8-2.5-1.5-4-2c-1.5-0.5-3-1.1-4.5-1.6
			c-1.9-0.6-3.7-1.3-5.4-2c-1.6-0.8-3.1-1.7-4.3-2.7c-1.2-1-2.2-2.2-2.9-3.6c-0.7-1.4-1-3-1-5c0-2.3,0.4-4.2,1.2-5.7
			c0.8-1.6,1.9-2.9,3.3-3.8c1.4-1,3-1.7,4.8-2.2c1.9-0.4,3.9-0.6,6-0.6c2.6,0,5,0.2,7.3,0.7c2.3,0.5,4.2,1.1,5.6,1.7l0.3,0.8l-1,6.4
			h-2l-0.4-0.4c-0.1-1.2-0.5-2.3-1.2-3c-0.7-0.8-1.6-1.4-2.6-1.8c-1-0.4-2-0.7-3.2-0.9c-1.1-0.1-2.1-0.2-3-0.2
			c-3.1,0-5.6,0.7-7.3,2.1C285.6,1346.6,284.8,1348.6,284.8,1351.1L284.8,1351.1z"/>
		<path id="path22" class="st1" d="M365.7,1357.2c0,0.1-0.1,0.5-0.4,1.2c-0.2,0.6-0.6,1.2-1.2,1.9c-0.5,0.6-1.1,1.2-1.9,1.7
			c-0.8,0.5-1.8,0.8-3,0.8c-0.6,0-1.6,0-3-0.1c-1.3-0.1-2.7-0.2-4-0.3c0.7,1.1,1.2,2.4,1.6,3.8c0.4,1.4,0.6,2.9,0.6,4.4
			c0,1.7-0.2,3.4-0.6,5c-0.4,1.7-1.1,3.2-2.1,4.7c1.8,1.8,3.6,3.3,5.5,4.3c1.8,1.1,4,1.6,6.6,1.7l0.4,0.3l0.2,1.3l-0.2,0.3
			c-0.5,0-1.1,0-1.9,0c-0.7,0-1.5,0.1-2.2,0.1c-0.8,0-1.5,0.1-2.1,0.1c-0.6,0-1.1,0.1-1.4,0.1c-1.4,0-2.9-0.5-4.2-1.4
			c-1.4-0.9-2.7-2-4-3.2c-1.8,1.5-3.9,2.6-6.3,3.5c-2.4,0.8-4.8,1.2-7.4,1.2c-2.1,0-4.2-0.3-6.1-0.8c-2-0.6-3.7-1.4-5.3-2.5
			c-1.5-1.1-2.8-2.5-3.7-4.1c-0.9-1.6-1.4-3.5-1.4-5.7c0-1.4,0.2-2.9,0.6-4.3c0.4-1.4,1.1-2.8,1.9-4c0.8-1.3,1.8-2.4,3-3.5
			c1.2-1.1,2.5-1.9,4-2.4c-1.5-2-2.6-3.8-3.3-5.3c-0.7-1.5-1-3.2-1-5c0-3.4,1-6,3.1-7.9c2.1-1.9,4.7-2.9,7.9-2.9c1,0,2,0.1,3,0.3
			c1.1,0.2,2,0.5,2.9,1c0.9,0.4,1.7,1,2.3,1.7c0.6,0.7,1.1,1.6,1.3,2.7l0.2,0.7l-0.9,5.1H341l-0.3-0.3c-0.2-2.8-0.9-4.8-2-5.9
			c-1.1-1.1-2.5-1.7-4.3-1.7c-2.1,0-3.6,0.6-4.5,1.9c-0.9,1.2-1.4,2.6-1.4,4.2c0,1.8,0.4,3.6,1.2,5.3c0.4,0.9,1,1.8,1.7,3
			c0.8,1.1,1.9,2.5,3.4,4.2c1.4,1.7,3.3,3.7,5.5,6.1c2.3,2.4,5,5.3,8.3,8.8c1.2-2.3,1.8-4.5,1.8-6.8c0-1.4-0.2-2.8-0.7-4.1
			c-0.4-1.3-1.1-2.7-1.9-4.1c-1.1,0-1.9,0.2-2.4,0.6c-0.5,0.3-0.9,0.7-1.3,1.2l-1-0.5c0-0.3,0.1-0.8,0.4-1.4
			c0.3-0.6,0.7-1.2,1.3-1.8c0.6-0.6,1.3-1.2,2.1-1.6c0.9-0.4,1.9-0.6,3-0.6c0.4,0,1,0,1.8,0.1c0.8,0,1.6,0.1,2.5,0.2
			c1,0,1.9,0.1,3,0.1c1,0,2,0.1,3,0.1c0.9,0,1.8-0.1,2.6-0.3c0.8-0.2,1.5-0.7,2.2-1.6L365.7,1357.2z M345.5,1380.8
			c-2.4-2.7-4.9-5.4-7.4-8c-2.5-2.6-5-5.5-7.6-8.5c-1.2,0.4-2.2,1-3.1,1.7c-0.9,0.8-1.6,1.7-2.2,2.7c-0.6,1-1,2-1.3,3.1
			c-0.3,1.1-0.4,2.1-0.4,3c0,1.7,0.4,3.1,1.1,4.4c0.7,1.2,1.6,2.2,2.7,3c1.2,0.8,2.4,1.4,3.8,1.8c1.4,0.4,2.9,0.6,4.2,0.6
			c1.8,0,3.6-0.3,5.4-0.9C342.5,1383,344.1,1382,345.5,1380.8L345.5,1380.8z"/>
		<path id="path24" class="st2" d="M378.8,1351.1c0,1.3,0.2,2.5,0.7,3.4c0.5,0.9,1.2,1.6,2.2,2.3c1,0.7,2.3,1.3,3.7,1.9
			c1.5,0.5,3.3,1.1,5.4,1.7c1.8,0.6,3.5,1.2,5.3,1.9c1.7,0.7,3.3,1.7,4.6,2.8c1.4,1.1,2.5,2.5,3.3,4.1c0.8,1.6,1.2,3.5,1.2,5.8
			c0,2.4-0.5,4.5-1.4,6.3c-1,1.7-2.2,3-3.8,4.1c-1.6,1.1-3.4,1.8-5.5,2.3c-2.1,0.5-4.2,0.7-6.6,0.7c-3,0-5.7-0.3-8.1-1
			c-2.4-0.7-4.7-1.5-6.6-2.5l-0.3-0.9l1.2-7.7h1.8l0.4,0.4c0.2,2.9,1.4,5.1,3.5,6.5c2.1,1.3,5,2,8.6,2c3.7,0,6.6-0.8,8.4-2.5
			c1.9-1.7,2.9-4,2.9-6.7c0-1.7-0.4-3.1-1.1-4.2c-0.7-1.2-1.7-2.1-2.9-2.9c-1.2-0.8-2.5-1.5-4-2c-1.5-0.5-3-1.1-4.5-1.6
			c-1.9-0.6-3.7-1.3-5.4-2c-1.6-0.8-3.1-1.7-4.3-2.7c-1.2-1-2.2-2.2-2.9-3.6c-0.7-1.4-1-3-1-5c0-2.3,0.4-4.2,1.2-5.7
			c0.8-1.6,1.9-2.9,3.3-3.8c1.4-1,3-1.7,4.8-2.2c1.9-0.4,3.9-0.6,6-0.6c2.6,0,5,0.2,7.3,0.7c2.3,0.5,4.2,1.1,5.6,1.7l0.3,0.8l-1,6.4
			h-2l-0.4-0.4c-0.1-1.2-0.5-2.3-1.2-3c-0.7-0.8-1.6-1.4-2.6-1.8c-1-0.4-2-0.7-3.2-0.9c-1.1-0.1-2.1-0.2-3-0.2
			c-3.1,0-5.6,0.7-7.3,2.1C379.7,1346.6,378.8,1348.6,378.8,1351.1L378.8,1351.1z"/>
		<path id="path26" class="st2" d="M418.5,1351.1c0,1.3,0.2,2.5,0.7,3.4c0.5,0.9,1.2,1.6,2.2,2.3c1,0.7,2.3,1.3,3.7,1.9
			c1.5,0.5,3.3,1.1,5.4,1.7c1.8,0.6,3.5,1.2,5.3,1.9c1.7,0.7,3.3,1.7,4.6,2.8c1.4,1.1,2.5,2.5,3.3,4.1c0.8,1.6,1.2,3.5,1.2,5.8
			c0,2.4-0.5,4.5-1.4,6.3c-1,1.7-2.2,3-3.8,4.1c-1.6,1.1-3.4,1.8-5.5,2.3c-2.1,0.5-4.2,0.7-6.6,0.7c-3,0-5.7-0.3-8.1-1
			s-4.7-1.5-6.6-2.5l-0.3-0.9l1.2-7.7h1.8l0.4,0.4c0.2,2.9,1.4,5.1,3.5,6.5c2.1,1.3,5,2,8.6,2c3.7,0,6.6-0.8,8.4-2.5
			c1.9-1.7,2.9-4,2.9-6.7c0-1.7-0.4-3.1-1.1-4.2c-0.7-1.2-1.7-2.1-2.9-2.9c-1.2-0.8-2.5-1.5-4-2c-1.5-0.5-3-1.1-4.5-1.6
			c-1.9-0.6-3.7-1.3-5.4-2c-1.6-0.8-3.1-1.7-4.3-2.7c-1.2-1-2.2-2.2-2.9-3.6c-0.7-1.4-1-3-1-5c0-2.3,0.4-4.2,1.2-5.7
			c0.8-1.6,1.9-2.9,3.3-3.8c1.4-1,3-1.7,4.8-2.2c1.9-0.4,3.9-0.6,6-0.6c2.6,0,5,0.2,7.3,0.7c2.3,0.5,4.2,1.1,5.6,1.7l0.3,0.8l-1,6.4
			h-2l-0.4-0.4c-0.1-1.2-0.5-2.3-1.2-3c-0.7-0.8-1.6-1.4-2.6-1.8c-1-0.4-2-0.7-3.2-0.9c-1.1-0.1-2.1-0.2-3-0.2
			c-3.1,0-5.6,0.7-7.3,2.1C419.4,1346.6,418.5,1348.6,418.5,1351.1L418.5,1351.1z"/>
	</g>
	<rect x="265.1" y="1321.2" class="st2" width="179.8" height="67.3"/>
	<rect x="345.5" y="1431.2" class="st2" width="83.2" height="0"/>
	<rect x="84.5" y="1321.2" class="st3" width="364.6" height="70.8"/>
	<text transform="matrix(1 0 0 1 84.4603 1384.598)" class="st4 st5 st6">UW POLS 249</text>
</g>
</svg>
